<?xml version="1.0" encoding="UTF-8" standalone="no" ?>
<!DOCTYPE svg PUBLIC "-//W3C//DTD SVG 1.1//EN" "http://www.w3.org/Graphics/SVG/1.1/DTD/svg11.dtd">
<svg xmlns="http://www.w3.org/2000/svg" xmlns:xlink="http://www.w3.org/1999/xlink" version="1.1" width="1080" height="1080" viewBox="0 0 1080 1080" xml:space="preserve">
<desc>Created with Fabric.js 5.2.4</desc>
<defs>
</defs>
<g transform="matrix(1 0 0 1 540 540)" id="cfb09ddf-77ed-46a5-9cd4-7495fb7e9649"  >
<rect style="stroke: none; stroke-width: 1; stroke-dasharray: none; stroke-linecap: butt; stroke-dashoffset: 0; stroke-linejoin: miter; stroke-miterlimit: 4; fill: rgb(255,255,255); fill-rule: nonzero; opacity: 1; visibility: hidden;" vector-effect="non-scaling-stroke"  x="-540" y="-540" rx="0" ry="0" width="1080" height="1080" />
</g>
<g transform="matrix(1 0 0 1 540 540)" id="71c952f7-6eba-4e92-a5bb-7823e12d2c35"  >
</g>
<g transform="matrix(1 0 0 1 540 540)"  >
<g style="" vector-effect="non-scaling-stroke"   >
		<g transform="matrix(1 0 0 1 -490 -490)"  >
<rect style="stroke: none; stroke-width: 1; stroke-dasharray: none; stroke-linecap: butt; stroke-dashoffset: 0; stroke-linejoin: miter; stroke-miterlimit: 4; fill: rgb(255,255,255); fill-opacity: 0; fill-rule: nonzero; opacity: 1;" vector-effect="non-scaling-stroke"  x="-50" y="-50" rx="0" ry="0" width="100" height="100" />
</g>
		<g transform="matrix(1 0 0 1 0 0)"  >
<rect style="stroke: none; stroke-width: 1; stroke-dasharray: none; stroke-linecap: butt; stroke-dashoffset: 0; stroke-linejoin: miter; stroke-miterlimit: 4; fill: rgb(255,255,255); fill-rule: nonzero; opacity: 1; visibility: hidden;" vector-effect="non-scaling-stroke"  x="-540" y="-540" rx="0" ry="0" width="1080" height="1080" />
</g>
		<g transform="matrix(45.75 0 0 45.75 0.11 -30.81)"  >
<path style="stroke: none; stroke-width: 1; stroke-dasharray: none; stroke-linecap: butt; stroke-dashoffset: 0; stroke-linejoin: miter; stroke-miterlimit: 4; fill: rgb(255,0,0); fill-rule: nonzero; opacity: 1;" vector-effect="non-scaling-stroke"  transform=" translate(-8.74, -8.06)" d="M 17.477 8.149 C 17.398 7.409999999999999 13.501000000000001 7.568 13.501000000000001 7.568 L 11.853 5.23 L 4.275 5.23 L 3.168 7.567 L 0 7.567 L 0 9.971 L 2.029 10.653 C 2.152 9.817 2.872 9.173 3.74 9.173 C 4.679 9.173 5.444 9.924 5.470000000000001 10.858 L 12.09 10.899000000000001 C 12.094 9.948 12.869 9.173000000000002 13.823 9.173000000000002 C 14.677 9.173000000000002 15.386000000000001 9.796000000000001 15.527000000000001 10.612000000000002 L 17.006 10.442000000000002 C 17.006 10.442 17.556 8.887 17.477 8.149 z M 4.007 7.568 L 4.753 5.797 L 7.617 5.797 L 8.088 7.568 L 4.007 7.568 z M 8.484 7.568 L 8.01 5.797 L 11.68 5.797 L 12.817 7.568 L 8.484 7.568 z" stroke-linecap="round" />
</g>
		<g transform="matrix(45.75 0 0 45.75 -228.01 101.73)"  >
<circle style="stroke: none; stroke-width: 1; stroke-dasharray: none; stroke-linecap: butt; stroke-dashoffset: 0; stroke-linejoin: miter; stroke-miterlimit: 4; fill: rgb(255,0,0); fill-rule: nonzero; opacity: 1;" vector-effect="non-scaling-stroke"  cx="0" cy="0" r="1.289" />
</g>
		<g transform="matrix(45.75 0 0 45.75 232.64 98.71)"  >
<circle style="stroke: none; stroke-width: 1; stroke-dasharray: none; stroke-linecap: butt; stroke-dashoffset: 0; stroke-linejoin: miter; stroke-miterlimit: 4; fill: rgb(255,0,0); fill-rule: nonzero; opacity: 1;" vector-effect="non-scaling-stroke"  cx="0" cy="0" r="1.29" />
</g>
</g>
</g>
<g transform="matrix(0.1 0 0 0.1 449.26 540)"  >
<g style="" vector-effect="non-scaling-stroke"   >
		<g transform="matrix(33.33 0 0 33.33 -200 -200)"  >
<line style="stroke: rgb(0,0,0); stroke-width: 2; stroke-dasharray: none; stroke-linecap: round; stroke-dashoffset: 0; stroke-linejoin: miter; stroke-miterlimit: 4; fill: rgb(179,255,0); fill-rule: nonzero; opacity: 1;" vector-effect="non-scaling-stroke"  x1="-0.004999999999999893" y1="0" x2="0.004999999999999893" y2="0" />
</g>
		<g transform="matrix(33.33 0 0 33.33 0 -200)"  >
<line style="stroke: rgb(0,0,0); stroke-width: 2; stroke-dasharray: none; stroke-linecap: round; stroke-dashoffset: 0; stroke-linejoin: miter; stroke-miterlimit: 4; fill: rgb(179,255,0); fill-rule: nonzero; opacity: 1;" vector-effect="non-scaling-stroke"  x1="-0.004999999999999893" y1="0" x2="0.004999999999999893" y2="0" />
</g>
		<g transform="matrix(33.33 0 0 33.33 200 -200)"  >
<line style="stroke: rgb(0,0,0); stroke-width: 2; stroke-dasharray: none; stroke-linecap: round; stroke-dashoffset: 0; stroke-linejoin: miter; stroke-miterlimit: 4; fill: rgb(179,255,0); fill-rule: nonzero; opacity: 1;" vector-effect="non-scaling-stroke"  x1="-0.005000000000000782" y1="0" x2="0.005000000000000782" y2="0" />
</g>
		<g transform="matrix(33.33 0 0 33.33 -200 0)"  >
<line style="stroke: rgb(0,0,0); stroke-width: 2; stroke-dasharray: none; stroke-linecap: round; stroke-dashoffset: 0; stroke-linejoin: miter; stroke-miterlimit: 4; fill: rgb(179,255,0); fill-rule: nonzero; opacity: 1;" vector-effect="non-scaling-stroke"  x1="-0.004999999999999893" y1="0" x2="0.004999999999999893" y2="0" />
</g>
		<g transform="matrix(33.33 0 0 33.33 0 0)"  >
<line style="stroke: rgb(0,0,0); stroke-width: 2; stroke-dasharray: none; stroke-linecap: round; stroke-dashoffset: 0; stroke-linejoin: miter; stroke-miterlimit: 4; fill: rgb(179,255,0); fill-rule: nonzero; opacity: 1;" vector-effect="non-scaling-stroke"  x1="-0.004999999999999893" y1="0" x2="0.004999999999999893" y2="0" />
</g>
		<g transform="matrix(33.33 0 0 33.33 200 0)"  >
<line style="stroke: rgb(0,0,0); stroke-width: 2; stroke-dasharray: none; stroke-linecap: round; stroke-dashoffset: 0; stroke-linejoin: miter; stroke-miterlimit: 4; fill: rgb(179,255,0); fill-rule: nonzero; opacity: 1;" vector-effect="non-scaling-stroke"  x1="-0.005000000000000782" y1="0" x2="0.005000000000000782" y2="0" />
</g>
		<g transform="matrix(33.33 0 0 33.33 -200 200)"  >
<line style="stroke: rgb(0,0,0); stroke-width: 2; stroke-dasharray: none; stroke-linecap: round; stroke-dashoffset: 0; stroke-linejoin: miter; stroke-miterlimit: 4; fill: rgb(179,255,0); fill-rule: nonzero; opacity: 1;" vector-effect="non-scaling-stroke"  x1="-0.004999999999999893" y1="0" x2="0.004999999999999893" y2="0" />
</g>
		<g transform="matrix(33.33 0 0 33.33 0 200)"  >
<line style="stroke: rgb(0,0,0); stroke-width: 2; stroke-dasharray: none; stroke-linecap: round; stroke-dashoffset: 0; stroke-linejoin: miter; stroke-miterlimit: 4; fill: rgb(179,255,0); fill-rule: nonzero; opacity: 1;" vector-effect="non-scaling-stroke"  x1="-0.004999999999999893" y1="0" x2="0.004999999999999893" y2="0" />
</g>
		<g transform="matrix(33.33 0 0 33.33 200 200)"  >
<line style="stroke: rgb(0,0,0); stroke-width: 2; stroke-dasharray: none; stroke-linecap: round; stroke-dashoffset: 0; stroke-linejoin: miter; stroke-miterlimit: 4; fill: rgb(179,255,0); fill-rule: nonzero; opacity: 1;" vector-effect="non-scaling-stroke"  x1="-0.005000000000000782" y1="0" x2="0.005000000000000782" y2="0" />
</g>
</g>
</g>
<g transform="matrix(0.1 0 0 0.1 522.98 540)"  >
<g style="" vector-effect="non-scaling-stroke"   >
		<g transform="matrix(33.33 0 0 33.33 -200 -200)"  >
<line style="stroke: rgb(0,0,0); stroke-width: 2; stroke-dasharray: none; stroke-linecap: round; stroke-dashoffset: 0; stroke-linejoin: miter; stroke-miterlimit: 4; fill: rgb(179,255,0); fill-rule: nonzero; opacity: 1;" vector-effect="non-scaling-stroke"  x1="-0.004999999999999893" y1="0" x2="0.004999999999999893" y2="0" />
</g>
		<g transform="matrix(33.33 0 0 33.33 0 -200)"  >
<line style="stroke: rgb(0,0,0); stroke-width: 2; stroke-dasharray: none; stroke-linecap: round; stroke-dashoffset: 0; stroke-linejoin: miter; stroke-miterlimit: 4; fill: rgb(179,255,0); fill-rule: nonzero; opacity: 1;" vector-effect="non-scaling-stroke"  x1="-0.004999999999999893" y1="0" x2="0.004999999999999893" y2="0" />
</g>
		<g transform="matrix(33.33 0 0 33.33 200 -200)"  >
<line style="stroke: rgb(0,0,0); stroke-width: 2; stroke-dasharray: none; stroke-linecap: round; stroke-dashoffset: 0; stroke-linejoin: miter; stroke-miterlimit: 4; fill: rgb(179,255,0); fill-rule: nonzero; opacity: 1;" vector-effect="non-scaling-stroke"  x1="-0.005000000000000782" y1="0" x2="0.005000000000000782" y2="0" />
</g>
		<g transform="matrix(33.33 0 0 33.33 -200 0)"  >
<line style="stroke: rgb(0,0,0); stroke-width: 2; stroke-dasharray: none; stroke-linecap: round; stroke-dashoffset: 0; stroke-linejoin: miter; stroke-miterlimit: 4; fill: rgb(179,255,0); fill-rule: nonzero; opacity: 1;" vector-effect="non-scaling-stroke"  x1="-0.004999999999999893" y1="0" x2="0.004999999999999893" y2="0" />
</g>
		<g transform="matrix(33.33 0 0 33.33 0 0)"  >
<line style="stroke: rgb(0,0,0); stroke-width: 2; stroke-dasharray: none; stroke-linecap: round; stroke-dashoffset: 0; stroke-linejoin: miter; stroke-miterlimit: 4; fill: rgb(179,255,0); fill-rule: nonzero; opacity: 1;" vector-effect="non-scaling-stroke"  x1="-0.004999999999999893" y1="0" x2="0.004999999999999893" y2="0" />
</g>
		<g transform="matrix(33.33 0 0 33.33 200 0)"  >
<line style="stroke: rgb(0,0,0); stroke-width: 2; stroke-dasharray: none; stroke-linecap: round; stroke-dashoffset: 0; stroke-linejoin: miter; stroke-miterlimit: 4; fill: rgb(179,255,0); fill-rule: nonzero; opacity: 1;" vector-effect="non-scaling-stroke"  x1="-0.005000000000000782" y1="0" x2="0.005000000000000782" y2="0" />
</g>
		<g transform="matrix(33.33 0 0 33.33 -200 200)"  >
<line style="stroke: rgb(0,0,0); stroke-width: 2; stroke-dasharray: none; stroke-linecap: round; stroke-dashoffset: 0; stroke-linejoin: miter; stroke-miterlimit: 4; fill: rgb(179,255,0); fill-rule: nonzero; opacity: 1;" vector-effect="non-scaling-stroke"  x1="-0.004999999999999893" y1="0" x2="0.004999999999999893" y2="0" />
</g>
		<g transform="matrix(33.33 0 0 33.33 0 200)"  >
<line style="stroke: rgb(0,0,0); stroke-width: 2; stroke-dasharray: none; stroke-linecap: round; stroke-dashoffset: 0; stroke-linejoin: miter; stroke-miterlimit: 4; fill: rgb(179,255,0); fill-rule: nonzero; opacity: 1;" vector-effect="non-scaling-stroke"  x1="-0.004999999999999893" y1="0" x2="0.004999999999999893" y2="0" />
</g>
		<g transform="matrix(33.33 0 0 33.33 200 200)"  >
<line style="stroke: rgb(0,0,0); stroke-width: 2; stroke-dasharray: none; stroke-linecap: round; stroke-dashoffset: 0; stroke-linejoin: miter; stroke-miterlimit: 4; fill: rgb(179,255,0); fill-rule: nonzero; opacity: 1;" vector-effect="non-scaling-stroke"  x1="-0.005000000000000782" y1="0" x2="0.005000000000000782" y2="0" />
</g>
</g>
</g>
<g transform="matrix(0.1 0 0 0.1 594.95 540)"  >
<g style="" vector-effect="non-scaling-stroke"   >
		<g transform="matrix(33.33 0 0 33.33 -200 -200)"  >
<line style="stroke: rgb(0,0,0); stroke-width: 2; stroke-dasharray: none; stroke-linecap: round; stroke-dashoffset: 0; stroke-linejoin: miter; stroke-miterlimit: 4; fill: rgb(179,255,0); fill-rule: nonzero; opacity: 1;" vector-effect="non-scaling-stroke"  x1="-0.004999999999999893" y1="0" x2="0.004999999999999893" y2="0" />
</g>
		<g transform="matrix(33.33 0 0 33.33 0 -200)"  >
<line style="stroke: rgb(0,0,0); stroke-width: 2; stroke-dasharray: none; stroke-linecap: round; stroke-dashoffset: 0; stroke-linejoin: miter; stroke-miterlimit: 4; fill: rgb(179,255,0); fill-rule: nonzero; opacity: 1;" vector-effect="non-scaling-stroke"  x1="-0.004999999999999893" y1="0" x2="0.004999999999999893" y2="0" />
</g>
		<g transform="matrix(33.33 0 0 33.33 200 -200)"  >
<line style="stroke: rgb(0,0,0); stroke-width: 2; stroke-dasharray: none; stroke-linecap: round; stroke-dashoffset: 0; stroke-linejoin: miter; stroke-miterlimit: 4; fill: rgb(179,255,0); fill-rule: nonzero; opacity: 1;" vector-effect="non-scaling-stroke"  x1="-0.005000000000000782" y1="0" x2="0.005000000000000782" y2="0" />
</g>
		<g transform="matrix(33.33 0 0 33.33 -200 0)"  >
<line style="stroke: rgb(0,0,0); stroke-width: 2; stroke-dasharray: none; stroke-linecap: round; stroke-dashoffset: 0; stroke-linejoin: miter; stroke-miterlimit: 4; fill: rgb(179,255,0); fill-rule: nonzero; opacity: 1;" vector-effect="non-scaling-stroke"  x1="-0.004999999999999893" y1="0" x2="0.004999999999999893" y2="0" />
</g>
		<g transform="matrix(33.33 0 0 33.33 0 0)"  >
<line style="stroke: rgb(0,0,0); stroke-width: 2; stroke-dasharray: none; stroke-linecap: round; stroke-dashoffset: 0; stroke-linejoin: miter; stroke-miterlimit: 4; fill: rgb(179,255,0); fill-rule: nonzero; opacity: 1;" vector-effect="non-scaling-stroke"  x1="-0.004999999999999893" y1="0" x2="0.004999999999999893" y2="0" />
</g>
		<g transform="matrix(33.33 0 0 33.33 200 0)"  >
<line style="stroke: rgb(0,0,0); stroke-width: 2; stroke-dasharray: none; stroke-linecap: round; stroke-dashoffset: 0; stroke-linejoin: miter; stroke-miterlimit: 4; fill: rgb(179,255,0); fill-rule: nonzero; opacity: 1;" vector-effect="non-scaling-stroke"  x1="-0.005000000000000782" y1="0" x2="0.005000000000000782" y2="0" />
</g>
		<g transform="matrix(33.33 0 0 33.33 -200 200)"  >
<line style="stroke: rgb(0,0,0); stroke-width: 2; stroke-dasharray: none; stroke-linecap: round; stroke-dashoffset: 0; stroke-linejoin: miter; stroke-miterlimit: 4; fill: rgb(179,255,0); fill-rule: nonzero; opacity: 1;" vector-effect="non-scaling-stroke"  x1="-0.004999999999999893" y1="0" x2="0.004999999999999893" y2="0" />
</g>
		<g transform="matrix(33.33 0 0 33.33 0 200)"  >
<line style="stroke: rgb(0,0,0); stroke-width: 2; stroke-dasharray: none; stroke-linecap: round; stroke-dashoffset: 0; stroke-linejoin: miter; stroke-miterlimit: 4; fill: rgb(179,255,0); fill-rule: nonzero; opacity: 1;" vector-effect="non-scaling-stroke"  x1="-0.004999999999999893" y1="0" x2="0.004999999999999893" y2="0" />
</g>
		<g transform="matrix(33.33 0 0 33.33 200 200)"  >
<line style="stroke: rgb(0,0,0); stroke-width: 2; stroke-dasharray: none; stroke-linecap: round; stroke-dashoffset: 0; stroke-linejoin: miter; stroke-miterlimit: 4; fill: rgb(179,255,0); fill-rule: nonzero; opacity: 1;" vector-effect="non-scaling-stroke"  x1="-0.005000000000000782" y1="0" x2="0.005000000000000782" y2="0" />
</g>
</g>
</g>
<g transform="matrix(0.1 0 0 0.1 670.46 540)"  >
<g style="" vector-effect="non-scaling-stroke"   >
		<g transform="matrix(33.33 0 0 33.33 -200 -200)"  >
<line style="stroke: rgb(0,0,0); stroke-width: 2; stroke-dasharray: none; stroke-linecap: round; stroke-dashoffset: 0; stroke-linejoin: miter; stroke-miterlimit: 4; fill: rgb(179,255,0); fill-rule: nonzero; opacity: 1;" vector-effect="non-scaling-stroke"  x1="-0.004999999999999893" y1="0" x2="0.004999999999999893" y2="0" />
</g>
		<g transform="matrix(33.33 0 0 33.33 0 -200)"  >
<line style="stroke: rgb(0,0,0); stroke-width: 2; stroke-dasharray: none; stroke-linecap: round; stroke-dashoffset: 0; stroke-linejoin: miter; stroke-miterlimit: 4; fill: rgb(179,255,0); fill-rule: nonzero; opacity: 1;" vector-effect="non-scaling-stroke"  x1="-0.004999999999999893" y1="0" x2="0.004999999999999893" y2="0" />
</g>
		<g transform="matrix(33.33 0 0 33.33 200 -200)"  >
<line style="stroke: rgb(0,0,0); stroke-width: 2; stroke-dasharray: none; stroke-linecap: round; stroke-dashoffset: 0; stroke-linejoin: miter; stroke-miterlimit: 4; fill: rgb(179,255,0); fill-rule: nonzero; opacity: 1;" vector-effect="non-scaling-stroke"  x1="-0.005000000000000782" y1="0" x2="0.005000000000000782" y2="0" />
</g>
		<g transform="matrix(33.33 0 0 33.33 -200 0)"  >
<line style="stroke: rgb(0,0,0); stroke-width: 2; stroke-dasharray: none; stroke-linecap: round; stroke-dashoffset: 0; stroke-linejoin: miter; stroke-miterlimit: 4; fill: rgb(179,255,0); fill-rule: nonzero; opacity: 1;" vector-effect="non-scaling-stroke"  x1="-0.004999999999999893" y1="0" x2="0.004999999999999893" y2="0" />
</g>
		<g transform="matrix(33.33 0 0 33.33 0 0)"  >
<line style="stroke: rgb(0,0,0); stroke-width: 2; stroke-dasharray: none; stroke-linecap: round; stroke-dashoffset: 0; stroke-linejoin: miter; stroke-miterlimit: 4; fill: rgb(179,255,0); fill-rule: nonzero; opacity: 1;" vector-effect="non-scaling-stroke"  x1="-0.004999999999999893" y1="0" x2="0.004999999999999893" y2="0" />
</g>
		<g transform="matrix(33.33 0 0 33.33 200 0)"  >
<line style="stroke: rgb(0,0,0); stroke-width: 2; stroke-dasharray: none; stroke-linecap: round; stroke-dashoffset: 0; stroke-linejoin: miter; stroke-miterlimit: 4; fill: rgb(179,255,0); fill-rule: nonzero; opacity: 1;" vector-effect="non-scaling-stroke"  x1="-0.005000000000000782" y1="0" x2="0.005000000000000782" y2="0" />
</g>
		<g transform="matrix(33.33 0 0 33.33 -200 200)"  >
<line style="stroke: rgb(0,0,0); stroke-width: 2; stroke-dasharray: none; stroke-linecap: round; stroke-dashoffset: 0; stroke-linejoin: miter; stroke-miterlimit: 4; fill: rgb(179,255,0); fill-rule: nonzero; opacity: 1;" vector-effect="non-scaling-stroke"  x1="-0.004999999999999893" y1="0" x2="0.004999999999999893" y2="0" />
</g>
		<g transform="matrix(33.33 0 0 33.33 0 200)"  >
<line style="stroke: rgb(0,0,0); stroke-width: 2; stroke-dasharray: none; stroke-linecap: round; stroke-dashoffset: 0; stroke-linejoin: miter; stroke-miterlimit: 4; fill: rgb(179,255,0); fill-rule: nonzero; opacity: 1;" vector-effect="non-scaling-stroke"  x1="-0.004999999999999893" y1="0" x2="0.004999999999999893" y2="0" />
</g>
		<g transform="matrix(33.33 0 0 33.33 200 200)"  >
<line style="stroke: rgb(0,0,0); stroke-width: 2; stroke-dasharray: none; stroke-linecap: round; stroke-dashoffset: 0; stroke-linejoin: miter; stroke-miterlimit: 4; fill: rgb(179,255,0); fill-rule: nonzero; opacity: 1;" vector-effect="non-scaling-stroke"  x1="-0.005000000000000782" y1="0" x2="0.005000000000000782" y2="0" />
</g>
</g>
</g>
<g transform="matrix(0.1 0 0 0.1 386.56 540)"  >
<g style="" vector-effect="non-scaling-stroke"   >
		<g transform="matrix(33.33 0 0 33.33 -200 -200)"  >
<line style="stroke: rgb(0,0,0); stroke-width: 2; stroke-dasharray: none; stroke-linecap: round; stroke-dashoffset: 0; stroke-linejoin: miter; stroke-miterlimit: 4; fill: rgb(179,255,0); fill-rule: nonzero; opacity: 1;" vector-effect="non-scaling-stroke"  x1="-0.004999999999999893" y1="0" x2="0.004999999999999893" y2="0" />
</g>
		<g transform="matrix(33.33 0 0 33.33 0 -200)"  >
<line style="stroke: rgb(0,0,0); stroke-width: 2; stroke-dasharray: none; stroke-linecap: round; stroke-dashoffset: 0; stroke-linejoin: miter; stroke-miterlimit: 4; fill: rgb(179,255,0); fill-rule: nonzero; opacity: 1;" vector-effect="non-scaling-stroke"  x1="-0.004999999999999893" y1="0" x2="0.004999999999999893" y2="0" />
</g>
		<g transform="matrix(33.33 0 0 33.33 200 -200)"  >
<line style="stroke: rgb(0,0,0); stroke-width: 2; stroke-dasharray: none; stroke-linecap: round; stroke-dashoffset: 0; stroke-linejoin: miter; stroke-miterlimit: 4; fill: rgb(179,255,0); fill-rule: nonzero; opacity: 1;" vector-effect="non-scaling-stroke"  x1="-0.005000000000000782" y1="0" x2="0.005000000000000782" y2="0" />
</g>
		<g transform="matrix(33.33 0 0 33.33 -200 0)"  >
<line style="stroke: rgb(0,0,0); stroke-width: 2; stroke-dasharray: none; stroke-linecap: round; stroke-dashoffset: 0; stroke-linejoin: miter; stroke-miterlimit: 4; fill: rgb(179,255,0); fill-rule: nonzero; opacity: 1;" vector-effect="non-scaling-stroke"  x1="-0.004999999999999893" y1="0" x2="0.004999999999999893" y2="0" />
</g>
		<g transform="matrix(33.33 0 0 33.33 0 0)"  >
<line style="stroke: rgb(0,0,0); stroke-width: 2; stroke-dasharray: none; stroke-linecap: round; stroke-dashoffset: 0; stroke-linejoin: miter; stroke-miterlimit: 4; fill: rgb(179,255,0); fill-rule: nonzero; opacity: 1;" vector-effect="non-scaling-stroke"  x1="-0.004999999999999893" y1="0" x2="0.004999999999999893" y2="0" />
</g>
		<g transform="matrix(33.33 0 0 33.33 200 0)"  >
<line style="stroke: rgb(0,0,0); stroke-width: 2; stroke-dasharray: none; stroke-linecap: round; stroke-dashoffset: 0; stroke-linejoin: miter; stroke-miterlimit: 4; fill: rgb(179,255,0); fill-rule: nonzero; opacity: 1;" vector-effect="non-scaling-stroke"  x1="-0.005000000000000782" y1="0" x2="0.005000000000000782" y2="0" />
</g>
		<g transform="matrix(33.33 0 0 33.33 -200 200)"  >
<line style="stroke: rgb(0,0,0); stroke-width: 2; stroke-dasharray: none; stroke-linecap: round; stroke-dashoffset: 0; stroke-linejoin: miter; stroke-miterlimit: 4; fill: rgb(179,255,0); fill-rule: nonzero; opacity: 1;" vector-effect="non-scaling-stroke"  x1="-0.004999999999999893" y1="0" x2="0.004999999999999893" y2="0" />
</g>
		<g transform="matrix(33.33 0 0 33.33 0 200)"  >
<line style="stroke: rgb(0,0,0); stroke-width: 2; stroke-dasharray: none; stroke-linecap: round; stroke-dashoffset: 0; stroke-linejoin: miter; stroke-miterlimit: 4; fill: rgb(179,255,0); fill-rule: nonzero; opacity: 1;" vector-effect="non-scaling-stroke"  x1="-0.004999999999999893" y1="0" x2="0.004999999999999893" y2="0" />
</g>
		<g transform="matrix(33.33 0 0 33.33 200 200)"  >
<line style="stroke: rgb(0,0,0); stroke-width: 2; stroke-dasharray: none; stroke-linecap: round; stroke-dashoffset: 0; stroke-linejoin: miter; stroke-miterlimit: 4; fill: rgb(179,255,0); fill-rule: nonzero; opacity: 1;" vector-effect="non-scaling-stroke"  x1="-0.005000000000000782" y1="0" x2="0.005000000000000782" y2="0" />
</g>
</g>
</g>
<g transform="matrix(0.1 0 0 0.1 454.99 592.49)"  >
<g style="" vector-effect="non-scaling-stroke"   >
		<g transform="matrix(33.33 0 0 33.33 -200 -200)"  >
<line style="stroke: rgb(0,0,0); stroke-width: 2; stroke-dasharray: none; stroke-linecap: round; stroke-dashoffset: 0; stroke-linejoin: miter; stroke-miterlimit: 4; fill: rgb(179,255,0); fill-rule: nonzero; opacity: 1;" vector-effect="non-scaling-stroke"  x1="-0.004999999999999893" y1="0" x2="0.004999999999999893" y2="0" />
</g>
		<g transform="matrix(33.33 0 0 33.33 0 -200)"  >
<line style="stroke: rgb(0,0,0); stroke-width: 2; stroke-dasharray: none; stroke-linecap: round; stroke-dashoffset: 0; stroke-linejoin: miter; stroke-miterlimit: 4; fill: rgb(179,255,0); fill-rule: nonzero; opacity: 1;" vector-effect="non-scaling-stroke"  x1="-0.004999999999999893" y1="0" x2="0.004999999999999893" y2="0" />
</g>
		<g transform="matrix(33.33 0 0 33.33 200 -200)"  >
<line style="stroke: rgb(0,0,0); stroke-width: 2; stroke-dasharray: none; stroke-linecap: round; stroke-dashoffset: 0; stroke-linejoin: miter; stroke-miterlimit: 4; fill: rgb(179,255,0); fill-rule: nonzero; opacity: 1;" vector-effect="non-scaling-stroke"  x1="-0.005000000000000782" y1="0" x2="0.005000000000000782" y2="0" />
</g>
		<g transform="matrix(33.33 0 0 33.33 -200 0)"  >
<line style="stroke: rgb(0,0,0); stroke-width: 2; stroke-dasharray: none; stroke-linecap: round; stroke-dashoffset: 0; stroke-linejoin: miter; stroke-miterlimit: 4; fill: rgb(179,255,0); fill-rule: nonzero; opacity: 1;" vector-effect="non-scaling-stroke"  x1="-0.004999999999999893" y1="0" x2="0.004999999999999893" y2="0" />
</g>
		<g transform="matrix(33.33 0 0 33.33 0 0)"  >
<line style="stroke: rgb(0,0,0); stroke-width: 2; stroke-dasharray: none; stroke-linecap: round; stroke-dashoffset: 0; stroke-linejoin: miter; stroke-miterlimit: 4; fill: rgb(179,255,0); fill-rule: nonzero; opacity: 1;" vector-effect="non-scaling-stroke"  x1="-0.004999999999999893" y1="0" x2="0.004999999999999893" y2="0" />
</g>
		<g transform="matrix(33.33 0 0 33.33 200 0)"  >
<line style="stroke: rgb(0,0,0); stroke-width: 2; stroke-dasharray: none; stroke-linecap: round; stroke-dashoffset: 0; stroke-linejoin: miter; stroke-miterlimit: 4; fill: rgb(179,255,0); fill-rule: nonzero; opacity: 1;" vector-effect="non-scaling-stroke"  x1="-0.005000000000000782" y1="0" x2="0.005000000000000782" y2="0" />
</g>
		<g transform="matrix(33.33 0 0 33.33 -200 200)"  >
<line style="stroke: rgb(0,0,0); stroke-width: 2; stroke-dasharray: none; stroke-linecap: round; stroke-dashoffset: 0; stroke-linejoin: miter; stroke-miterlimit: 4; fill: rgb(179,255,0); fill-rule: nonzero; opacity: 1;" vector-effect="non-scaling-stroke"  x1="-0.004999999999999893" y1="0" x2="0.004999999999999893" y2="0" />
</g>
		<g transform="matrix(33.33 0 0 33.33 0 200)"  >
<line style="stroke: rgb(0,0,0); stroke-width: 2; stroke-dasharray: none; stroke-linecap: round; stroke-dashoffset: 0; stroke-linejoin: miter; stroke-miterlimit: 4; fill: rgb(179,255,0); fill-rule: nonzero; opacity: 1;" vector-effect="non-scaling-stroke"  x1="-0.004999999999999893" y1="0" x2="0.004999999999999893" y2="0" />
</g>
		<g transform="matrix(33.33 0 0 33.33 200 200)"  >
<line style="stroke: rgb(0,0,0); stroke-width: 2; stroke-dasharray: none; stroke-linecap: round; stroke-dashoffset: 0; stroke-linejoin: miter; stroke-miterlimit: 4; fill: rgb(179,255,0); fill-rule: nonzero; opacity: 1;" vector-effect="non-scaling-stroke"  x1="-0.005000000000000782" y1="0" x2="0.005000000000000782" y2="0" />
</g>
</g>
</g>
<g transform="matrix(0.1 0 0 0.1 540 593.64)"  >
<g style="" vector-effect="non-scaling-stroke"   >
		<g transform="matrix(33.33 0 0 33.33 -200 -200)"  >
<line style="stroke: rgb(0,0,0); stroke-width: 2; stroke-dasharray: none; stroke-linecap: round; stroke-dashoffset: 0; stroke-linejoin: miter; stroke-miterlimit: 4; fill: rgb(179,255,0); fill-rule: nonzero; opacity: 1;" vector-effect="non-scaling-stroke"  x1="-0.004999999999999893" y1="0" x2="0.004999999999999893" y2="0" />
</g>
		<g transform="matrix(33.33 0 0 33.33 0 -200)"  >
<line style="stroke: rgb(0,0,0); stroke-width: 2; stroke-dasharray: none; stroke-linecap: round; stroke-dashoffset: 0; stroke-linejoin: miter; stroke-miterlimit: 4; fill: rgb(179,255,0); fill-rule: nonzero; opacity: 1;" vector-effect="non-scaling-stroke"  x1="-0.004999999999999893" y1="0" x2="0.004999999999999893" y2="0" />
</g>
		<g transform="matrix(33.33 0 0 33.33 200 -200)"  >
<line style="stroke: rgb(0,0,0); stroke-width: 2; stroke-dasharray: none; stroke-linecap: round; stroke-dashoffset: 0; stroke-linejoin: miter; stroke-miterlimit: 4; fill: rgb(179,255,0); fill-rule: nonzero; opacity: 1;" vector-effect="non-scaling-stroke"  x1="-0.005000000000000782" y1="0" x2="0.005000000000000782" y2="0" />
</g>
		<g transform="matrix(33.33 0 0 33.33 -200 0)"  >
<line style="stroke: rgb(0,0,0); stroke-width: 2; stroke-dasharray: none; stroke-linecap: round; stroke-dashoffset: 0; stroke-linejoin: miter; stroke-miterlimit: 4; fill: rgb(179,255,0); fill-rule: nonzero; opacity: 1;" vector-effect="non-scaling-stroke"  x1="-0.004999999999999893" y1="0" x2="0.004999999999999893" y2="0" />
</g>
		<g transform="matrix(33.33 0 0 33.33 0 0)"  >
<line style="stroke: rgb(0,0,0); stroke-width: 2; stroke-dasharray: none; stroke-linecap: round; stroke-dashoffset: 0; stroke-linejoin: miter; stroke-miterlimit: 4; fill: rgb(179,255,0); fill-rule: nonzero; opacity: 1;" vector-effect="non-scaling-stroke"  x1="-0.004999999999999893" y1="0" x2="0.004999999999999893" y2="0" />
</g>
		<g transform="matrix(33.33 0 0 33.33 200 0)"  >
<line style="stroke: rgb(0,0,0); stroke-width: 2; stroke-dasharray: none; stroke-linecap: round; stroke-dashoffset: 0; stroke-linejoin: miter; stroke-miterlimit: 4; fill: rgb(179,255,0); fill-rule: nonzero; opacity: 1;" vector-effect="non-scaling-stroke"  x1="-0.005000000000000782" y1="0" x2="0.005000000000000782" y2="0" />
</g>
		<g transform="matrix(33.33 0 0 33.33 -200 200)"  >
<line style="stroke: rgb(0,0,0); stroke-width: 2; stroke-dasharray: none; stroke-linecap: round; stroke-dashoffset: 0; stroke-linejoin: miter; stroke-miterlimit: 4; fill: rgb(179,255,0); fill-rule: nonzero; opacity: 1;" vector-effect="non-scaling-stroke"  x1="-0.004999999999999893" y1="0" x2="0.004999999999999893" y2="0" />
</g>
		<g transform="matrix(33.33 0 0 33.33 0 200)"  >
<line style="stroke: rgb(0,0,0); stroke-width: 2; stroke-dasharray: none; stroke-linecap: round; stroke-dashoffset: 0; stroke-linejoin: miter; stroke-miterlimit: 4; fill: rgb(179,255,0); fill-rule: nonzero; opacity: 1;" vector-effect="non-scaling-stroke"  x1="-0.004999999999999893" y1="0" x2="0.004999999999999893" y2="0" />
</g>
		<g transform="matrix(33.33 0 0 33.33 200 200)"  >
<line style="stroke: rgb(0,0,0); stroke-width: 2; stroke-dasharray: none; stroke-linecap: round; stroke-dashoffset: 0; stroke-linejoin: miter; stroke-miterlimit: 4; fill: rgb(179,255,0); fill-rule: nonzero; opacity: 1;" vector-effect="non-scaling-stroke"  x1="-0.005000000000000782" y1="0" x2="0.005000000000000782" y2="0" />
</g>
</g>
</g>
<g transform="matrix(0.1 0 0 0.1 627.9 598.33)"  >
<g style="" vector-effect="non-scaling-stroke"   >
		<g transform="matrix(33.33 0 0 33.33 -200 -200)"  >
<line style="stroke: rgb(0,0,0); stroke-width: 2; stroke-dasharray: none; stroke-linecap: round; stroke-dashoffset: 0; stroke-linejoin: miter; stroke-miterlimit: 4; fill: rgb(179,255,0); fill-rule: nonzero; opacity: 1;" vector-effect="non-scaling-stroke"  x1="-0.004999999999999893" y1="0" x2="0.004999999999999893" y2="0" />
</g>
		<g transform="matrix(33.33 0 0 33.33 0 -200)"  >
<line style="stroke: rgb(0,0,0); stroke-width: 2; stroke-dasharray: none; stroke-linecap: round; stroke-dashoffset: 0; stroke-linejoin: miter; stroke-miterlimit: 4; fill: rgb(179,255,0); fill-rule: nonzero; opacity: 1;" vector-effect="non-scaling-stroke"  x1="-0.004999999999999893" y1="0" x2="0.004999999999999893" y2="0" />
</g>
		<g transform="matrix(33.33 0 0 33.33 200 -200)"  >
<line style="stroke: rgb(0,0,0); stroke-width: 2; stroke-dasharray: none; stroke-linecap: round; stroke-dashoffset: 0; stroke-linejoin: miter; stroke-miterlimit: 4; fill: rgb(179,255,0); fill-rule: nonzero; opacity: 1;" vector-effect="non-scaling-stroke"  x1="-0.005000000000000782" y1="0" x2="0.005000000000000782" y2="0" />
</g>
		<g transform="matrix(33.33 0 0 33.33 -200 0)"  >
<line style="stroke: rgb(0,0,0); stroke-width: 2; stroke-dasharray: none; stroke-linecap: round; stroke-dashoffset: 0; stroke-linejoin: miter; stroke-miterlimit: 4; fill: rgb(179,255,0); fill-rule: nonzero; opacity: 1;" vector-effect="non-scaling-stroke"  x1="-0.004999999999999893" y1="0" x2="0.004999999999999893" y2="0" />
</g>
		<g transform="matrix(33.33 0 0 33.33 0 0)"  >
<line style="stroke: rgb(0,0,0); stroke-width: 2; stroke-dasharray: none; stroke-linecap: round; stroke-dashoffset: 0; stroke-linejoin: miter; stroke-miterlimit: 4; fill: rgb(179,255,0); fill-rule: nonzero; opacity: 1;" vector-effect="non-scaling-stroke"  x1="-0.004999999999999893" y1="0" x2="0.004999999999999893" y2="0" />
</g>
		<g transform="matrix(33.33 0 0 33.33 200 0)"  >
<line style="stroke: rgb(0,0,0); stroke-width: 2; stroke-dasharray: none; stroke-linecap: round; stroke-dashoffset: 0; stroke-linejoin: miter; stroke-miterlimit: 4; fill: rgb(179,255,0); fill-rule: nonzero; opacity: 1;" vector-effect="non-scaling-stroke"  x1="-0.005000000000000782" y1="0" x2="0.005000000000000782" y2="0" />
</g>
		<g transform="matrix(33.33 0 0 33.33 -200 200)"  >
<line style="stroke: rgb(0,0,0); stroke-width: 2; stroke-dasharray: none; stroke-linecap: round; stroke-dashoffset: 0; stroke-linejoin: miter; stroke-miterlimit: 4; fill: rgb(179,255,0); fill-rule: nonzero; opacity: 1;" vector-effect="non-scaling-stroke"  x1="-0.004999999999999893" y1="0" x2="0.004999999999999893" y2="0" />
</g>
		<g transform="matrix(33.33 0 0 33.33 0 200)"  >
<line style="stroke: rgb(0,0,0); stroke-width: 2; stroke-dasharray: none; stroke-linecap: round; stroke-dashoffset: 0; stroke-linejoin: miter; stroke-miterlimit: 4; fill: rgb(179,255,0); fill-rule: nonzero; opacity: 1;" vector-effect="non-scaling-stroke"  x1="-0.004999999999999893" y1="0" x2="0.004999999999999893" y2="0" />
</g>
		<g transform="matrix(33.33 0 0 33.33 200 200)"  >
<line style="stroke: rgb(0,0,0); stroke-width: 2; stroke-dasharray: none; stroke-linecap: round; stroke-dashoffset: 0; stroke-linejoin: miter; stroke-miterlimit: 4; fill: rgb(179,255,0); fill-rule: nonzero; opacity: 1;" vector-effect="non-scaling-stroke"  x1="-0.005000000000000782" y1="0" x2="0.005000000000000782" y2="0" />
</g>
</g>
</g>
<g transform="matrix(1.25 -7.44 7.44 1.25 113.82 431.5)" id="c08191a8-2b5b-4787-9991-bea0e8cb0e9a"  >
<path style="stroke: rgb(0,0,0); stroke-width: 0; stroke-dasharray: none; stroke-linecap: butt; stroke-dashoffset: 0; stroke-linejoin: miter; stroke-miterlimit: 4; fill: rgb(0,255,66); fill-rule: nonzero; opacity: 1;" vector-effect="non-scaling-stroke"  transform=" translate(-12, -12)" d="M 3.292 20.708 C 2.9036132260021654 20.31784612425868 2.9036132260021654 19.687153875741316 3.292 19.296999999999997 L 6.12 16.469 C 4.599400696765223 13.250027540398364 5.376464553862231 9.414342700235752 8.030000000000001 7.040999999999999 C 13.072 2 20.9 3.1 20.9 3.1 C 20.9 3.1 22 10.928 16.959 15.97 C 14.585657299764247 18.62353544613777 10.749972459601631 19.400599303234777 7.530999999999995 17.88 L 4.7 20.708 C 4.3101970230323525 21.09440003754811 3.6818029769676475 21.09440003754811 3.292 20.708 Z" stroke-linecap="round" />
</g>
<g transform="matrix(6.64 -3.59 3.59 6.64 175.18 427.33)"  >
<path style="stroke: rgb(0,0,0); stroke-width: 0; stroke-dasharray: none; stroke-linecap: butt; stroke-dashoffset: 0; stroke-linejoin: miter; stroke-miterlimit: 4; fill: rgb(0,255,66); fill-rule: nonzero; opacity: 1;" vector-effect="non-scaling-stroke"  transform=" translate(-12, -12)" d="M 3.292 20.708 C 2.9036132260021654 20.31784612425868 2.9036132260021654 19.687153875741316 3.292 19.296999999999997 L 6.12 16.469 C 4.599400696765223 13.250027540398364 5.376464553862231 9.414342700235752 8.030000000000001 7.040999999999999 C 13.072 2 20.9 3.1 20.9 3.1 C 20.9 3.1 22 10.928 16.959 15.97 C 14.585657299764247 18.62353544613777 10.749972459601631 19.400599303234777 7.530999999999995 17.88 L 4.7 20.708 C 4.3101970230323525 21.09440003754811 3.6818029769676475 21.09440003754811 3.292 20.708 Z" stroke-linecap="round" />
</g>
</svg>