<?xml version="1.0" encoding="UTF-8" standalone="no" ?>
<!DOCTYPE svg PUBLIC "-//W3C//DTD SVG 1.1//EN" "http://www.w3.org/Graphics/SVG/1.1/DTD/svg11.dtd">
<svg xmlns="http://www.w3.org/2000/svg" xmlns:xlink="http://www.w3.org/1999/xlink" version="1.1" width="1080" height="1080" viewBox="0 0 1080 1080" xml:space="preserve">
<desc>Created with Fabric.js 5.2.4</desc>
<defs>
</defs>
<rect x="0" y="0" width="100%" height="100%" fill="transparent"></rect>
<g transform="matrix(1 0 0 1 540 540)" id="cfb09ddf-77ed-46a5-9cd4-7495fb7e9649"  >
<rect style="stroke: none; stroke-width: 1; stroke-dasharray: none; stroke-linecap: butt; stroke-dashoffset: 0; stroke-linejoin: miter; stroke-miterlimit: 4; fill: rgb(255,255,255); fill-rule: nonzero; opacity: 1; visibility: hidden;" vector-effect="non-scaling-stroke"  x="-540" y="-540" rx="0" ry="0" width="1080" height="1080" />
</g>
<g transform="matrix(1 0 0 1 540 540)" id="71c952f7-6eba-4e92-a5bb-7823e12d2c35"  >
</g>
<g transform="matrix(1 0 0 1 540 540)"  >
<g style="" vector-effect="non-scaling-stroke"   >
		<g transform="matrix(1 0 0 1 -490 -490)"  >
<rect style="stroke: none; stroke-width: 1; stroke-dasharray: none; stroke-linecap: butt; stroke-dashoffset: 0; stroke-linejoin: miter; stroke-miterlimit: 4; fill: rgb(255,255,255); fill-opacity: 0; fill-rule: nonzero; opacity: 1;" vector-effect="non-scaling-stroke"  x="-50" y="-50" rx="0" ry="0" width="100" height="100" />
</g>
		<g transform="matrix(1 0 0 1 0 0)"  >
<rect style="stroke: none; stroke-width: 1; stroke-dasharray: none; stroke-linecap: butt; stroke-dashoffset: 0; stroke-linejoin: miter; stroke-miterlimit: 4; fill: rgb(255,255,255); fill-rule: nonzero; opacity: 1; visibility: hidden;" vector-effect="non-scaling-stroke"  x="-540" y="-540" rx="0" ry="0" width="1080" height="1080" />
</g>
		<g transform="matrix(45.75 0 0 45.75 0.11 -30.81)"  >
<path style="stroke: none; stroke-width: 1; stroke-dasharray: none; stroke-linecap: butt; stroke-dashoffset: 0; stroke-linejoin: miter; stroke-miterlimit: 4; fill: rgb(131,131,131); fill-rule: nonzero; opacity: 1;" vector-effect="non-scaling-stroke"  transform=" translate(-8.74, -8.06)" d="M 17.477 8.149 C 17.398 7.409999999999999 13.501000000000001 7.568 13.501000000000001 7.568 L 11.853 5.23 L 4.275 5.23 L 3.168 7.567 L 0 7.567 L 0 9.971 L 2.029 10.653 C 2.152 9.817 2.872 9.173 3.74 9.173 C 4.679 9.173 5.444 9.924 5.470000000000001 10.858 L 12.09 10.899000000000001 C 12.094 9.948 12.869 9.173000000000002 13.823 9.173000000000002 C 14.677 9.173000000000002 15.386000000000001 9.796000000000001 15.527000000000001 10.612000000000002 L 17.006 10.442000000000002 C 17.006 10.442 17.556 8.887 17.477 8.149 z M 4.007 7.568 L 4.753 5.797 L 7.617 5.797 L 8.088 7.568 L 4.007 7.568 z M 8.484 7.568 L 8.01 5.797 L 11.68 5.797 L 12.817 7.568 L 8.484 7.568 z" stroke-linecap="round" />
</g>
		<g transform="matrix(45.75 0 0 45.75 -228.01 101.73)"  >
<circle style="stroke: none; stroke-width: 1; stroke-dasharray: none; stroke-linecap: butt; stroke-dashoffset: 0; stroke-linejoin: miter; stroke-miterlimit: 4; fill: rgb(131,131,131); fill-rule: nonzero; opacity: 1;" vector-effect="non-scaling-stroke"  cx="0" cy="0" r="1.289" />
</g>
		<g transform="matrix(45.75 0 0 45.75 232.64 98.71)"  >
<circle style="stroke: none; stroke-width: 1; stroke-dasharray: none; stroke-linecap: butt; stroke-dashoffset: 0; stroke-linejoin: miter; stroke-miterlimit: 4; fill: rgb(131,131,131); fill-rule: nonzero; opacity: 1;" vector-effect="non-scaling-stroke"  cx="0" cy="0" r="1.29" />
</g>
</g>
</g>
<g transform="matrix(0.32 0 0 0.32 522.58 557.78)" id="e3086f0d-076b-4bf2-829b-361df08cc08d"  >
<path style="stroke: rgb(0,0,0); stroke-width: 0; stroke-dasharray: none; stroke-linecap: butt; stroke-dashoffset: 0; stroke-linejoin: miter; stroke-miterlimit: 4; fill: rgb(0,0,0); fill-rule: nonzero; opacity: 1;" vector-effect="non-scaling-stroke"  transform=" translate(-254.99, -253)" d="M 322.248 85.684 L 61.432 224.717 L 20.287 334.65700000000004 L 27.52 338.50700000000006 L 181.193 420.3070000000001 L 489.688 256.0920000000001 L 451.936 156.18900000000008 L 322.248 85.68300000000008 z M 441.283 180.87099999999998 L 466.39300000000003 247.32099999999997 L 363.833 301.91499999999996 L 430.39 186.64 L 441.283 180.86999999999998 z M 351.707 228.28799999999998 L 284.957 343.9 L 243.28699999999998 366.082 L 315.48199999999997 247.462 L 351.707 228.28699999999998 z M 72.38 248.78 L 100.59 263.713 L 46.578 317.725 L 72.38 248.78 z M 283.207 264.547 L 211.19 382.87 L 211.45 383.03000000000003 L 194.242 392.19000000000005 L 200.03699999999998 308.57200000000006 L 283.207 264.5470000000001 z M 117.87299999999999 272.85900000000004 L 134.83599999999998 281.83900000000006 L 74.39099999999999 342.28400000000005 L 57.46099999999999 333.27200000000005 L 117.874 272.85800000000006 z M 181.42 306.9 L 175.24599999999998 395.96999999999997 L 121.14599999999999 367.17199999999997 L 181.42 306.9 z" stroke-linecap="round" />
</g>
</svg>