<?xml version="1.0" encoding="UTF-8" standalone="no" ?>
<!DOCTYPE svg PUBLIC "-//W3C//DTD SVG 1.1//EN" "http://www.w3.org/Graphics/SVG/1.1/DTD/svg11.dtd">
<svg xmlns="http://www.w3.org/2000/svg" xmlns:xlink="http://www.w3.org/1999/xlink" version="1.1" width="1080" height="1080" viewBox="0 0 1080 1080" xml:space="preserve">
<desc>Created with Fabric.js 5.2.4</desc>
<defs>
</defs>
<rect x="0" y="0" width="100%" height="100%" fill="transparent"></rect>
<g transform="matrix(1 0 0 1 540 540)" id="cdad3f1b-d1bc-438a-88ff-456d46e72717"  >
<rect style="stroke: none; stroke-width: 1; stroke-dasharray: none; stroke-linecap: butt; stroke-dashoffset: 0; stroke-linejoin: miter; stroke-miterlimit: 4; fill: rgb(255,255,255); fill-rule: nonzero; opacity: 1; visibility: hidden;" vector-effect="non-scaling-stroke"  x="-540" y="-540" rx="0" ry="0" width="1080" height="1080" />
</g>
<g transform="matrix(1 0 0 1 540 540)" id="281b1523-3116-4835-a235-a5c907bfd147"  >
</g>
<g transform="matrix(1 0 0 1 540 540)"  >
<g style="" vector-effect="non-scaling-stroke"   >
		<g transform="matrix(45.75 0 0 45.75 0 -31.02)"  >
<path style="stroke: none; stroke-width: 1; stroke-dasharray: none; stroke-linecap: butt; stroke-dashoffset: 0; stroke-linejoin: miter; stroke-miterlimit: 4; fill: rgb(251,255,0); fill-rule: nonzero; opacity: 1;" vector-effect="non-scaling-stroke"  transform=" translate(-8.74, -8.06)" d="M 17.477 8.149 C 17.398 7.409999999999999 13.501000000000001 7.568 13.501000000000001 7.568 L 11.853 5.23 L 4.275 5.23 L 3.168 7.567 L 0 7.567 L 0 9.971 L 2.029 10.653 C 2.152 9.817 2.872 9.173 3.74 9.173 C 4.679 9.173 5.444 9.924 5.470000000000001 10.858 L 12.09 10.899000000000001 C 12.094 9.948 12.869 9.173000000000002 13.823 9.173000000000002 C 14.677 9.173000000000002 15.386000000000001 9.796000000000001 15.527000000000001 10.612000000000002 L 17.006 10.442000000000002 C 17.006 10.442 17.556 8.887 17.477 8.149 z M 4.007 7.568 L 4.753 5.797 L 7.617 5.797 L 8.088 7.568 L 4.007 7.568 z M 8.484 7.568 L 8.01 5.797 L 11.68 5.797 L 12.817 7.568 L 8.484 7.568 z" stroke-linecap="round" />
</g>
		<g transform="matrix(45.75 0 0 45.75 -228.01 101.73)"  >
<circle style="stroke: none; stroke-width: 1; stroke-dasharray: none; stroke-linecap: butt; stroke-dashoffset: 0; stroke-linejoin: miter; stroke-miterlimit: 4; fill: rgb(251,255,0); fill-rule: nonzero; opacity: 1;" vector-effect="non-scaling-stroke"  cx="0" cy="0" r="1.289" />
</g>
		<g transform="matrix(45.75 0 0 45.75 232.64 98.71)"  >
<circle style="stroke: none; stroke-width: 1; stroke-dasharray: none; stroke-linecap: butt; stroke-dashoffset: 0; stroke-linejoin: miter; stroke-miterlimit: 4; fill: rgb(251,255,0); fill-rule: nonzero; opacity: 1;" vector-effect="non-scaling-stroke"  cx="0" cy="0" r="1.29" />
</g>
</g>
</g>
</svg>